<?xml version="1.0" encoding="UTF-8" standalone="no"?><!DOCTYPE svg PUBLIC "-//W3C//DTD SVG 1.1//EN" "http://www.w3.org/Graphics/SVG/1.1/DTD/svg11.dtd"><svg width="100%" height="100%" viewBox="0 0 47 38" version="1.1" xmlns="http://www.w3.org/2000/svg" xmlns:xlink="http://www.w3.org/1999/xlink" xml:space="preserve" xmlns:serif="http://www.serif.com/" style="fill-rule:evenodd;clip-rule:evenodd;stroke-linejoin:round;stroke-miterlimit:2;"><g><path d="M23,3c0,-1.657 1.343,-3 3,-3l0.019,0c0.333,0.003 0.664,0.059 0.978,0.17c0.422,0.148 0.808,0.392 1.124,0.709c0.317,0.316 0.561,0.702 0.709,1.124c0.113,0.32 0.169,0.658 0.17,0.997l0,12.608c1.766,-1.023 3.815,-1.608 6,-1.608c6.623,0 12,5.377 12,12c0,6.623 -5.377,12 -12,12c-6.623,0 -12,-5.377 -12,-12l0,-23Zm12,17c3.311,0 6,2.689 6,6c0,3.311 -2.689,6 -6,6c-3.311,0 -6,-2.689 -6,-6c0,-3.311 2.689,-6 6,-6Z"/><path d="M20.484,34.484c-2.173,2.172 -5.173,3.516 -8.484,3.516c-6.623,0 -12,-5.377 -12,-12c0,-6.623 5.377,-12 12,-12c3.311,0 6.311,1.344 8.484,3.516l-4.242,4.242c-1.086,-1.086 -2.586,-1.758 -4.242,-1.758c-3.311,0 -6,2.689 -6,6c0,3.311 2.689,6 6,6c1.656,0 3.156,-0.672 4.242,-1.758l4.242,4.242Z"/></g></svg>